<?xml version="1.0" encoding="iso-8859-1"?>
<!-- Generator: Adobe Illustrator 19.0.0, SVG Export Plug-In . SVG Version: 6.00 Build 0)  -->
<svg xmlns="http://www.w3.org/2000/svg" xmlns:xlink="http://www.w3.org/1999/xlink" version="1.1" id="Capa_1" x="0px" y="0px" viewBox="0 0 477.867 477.867" style="enable-background:new 0 0 477.867 477.867;" xml:space="preserve" width="512px" height="512px">
<g>
	<g>
		<path d="M282.121,281.6c-2.259,5.896-4.985,11.603-8.151,17.067h19.281c2.728-5.522,5.076-11.225,7.027-17.067H282.121z" fill="#fefefe"/>
	</g>
</g>
<g>
	<g>
		<path d="M289.701,247.467c-0.386,5.739-1.188,11.443-2.399,17.067h17.408c1.044-5.64,1.731-11.34,2.058-17.067H289.701z" fill="#fefefe"/>
	</g>
</g>
<g>
	<g>
		<path d="M68.699,247.467c0.492,5.762,1.475,11.472,2.938,17.067h198.059c1.463-5.595,2.446-11.305,2.938-17.067H68.699z" fill="#fefefe"/>
	</g>
</g>
<g>
	<g>
		<path d="M238.171,315.733H103.163C141.693,349.867,199.64,349.867,238.171,315.733L238.171,315.733z" fill="#fefefe"/>
	</g>
</g>
<g>
	<g>
		<path d="M36.624,213.333c-1.044,5.64-1.731,11.34-2.058,17.067h17.067c0.387-5.739,1.188-11.443,2.399-17.067H36.624z" fill="#fefefe"/>
	</g>
</g>
<g>
	<g>
		<path d="M48.083,179.2c-2.728,5.522-5.076,11.225-7.027,17.067h18.157c2.259-5.896,4.985-11.603,8.151-17.067H48.083z" fill="#fefefe"/>
	</g>
</g>
<g>
	<g>
		<path d="M304.709,213.333h-17.408c1.211,5.623,2.013,11.327,2.399,17.067h17.067C306.441,224.674,305.753,218.973,304.709,213.333    z" fill="#fefefe"/>
	</g>
</g>
<g>
	<g>
		<path d="M170.667,102.4c-45.167,0.019-87.399,22.384-112.797,59.733h21.418c42.26-50.467,117.431-57.12,167.898-14.86    c5.381,4.506,10.354,9.479,14.86,14.86h21.418C258.066,124.784,215.834,102.419,170.667,102.4z" fill="#fefefe"/>
	</g>
</g>
<g>
	<g>
		<path d="M293.25,179.2h-19.281c3.166,5.463,5.892,11.17,8.151,17.067h18.157C298.326,190.425,295.978,184.722,293.25,179.2z" fill="#fefefe"/>
	</g>
</g>
<g>
	<g>
		<path d="M77.7,281.6c2.763,5.997,6.101,11.713,9.965,17.067h166.003c3.865-5.354,7.202-11.07,9.965-17.067H77.7z" fill="#fefefe"/>
	</g>
</g>
<g>
	<g>
		<path d="M23.221,281.6H0v17.067h29.157C26.843,293.1,24.861,287.401,23.221,281.6z" fill="#fefefe"/>
	</g>
</g>
<g>
	<g>
		<path d="M17.499,247.467H0v17.067h19.379C18.434,258.884,17.806,253.186,17.499,247.467z" fill="#fefefe"/>
	</g>
</g>
<g>
	<g>
		<path d="M460.8,315.733v25.6c0,4.713-3.82,8.533-8.533,8.533s-8.533-3.82-8.533-8.533v-25.6H409.6v25.6    c0,4.713-3.82,8.533-8.533,8.533s-8.533-3.82-8.533-8.533v-25.6H358.4v25.6c0,4.713-3.82,8.533-8.533,8.533    s-8.533-3.82-8.533-8.533v-25.6h-37.85c-42.22,73.353-135.911,98.591-209.264,56.37c-23.434-13.488-42.882-32.936-56.37-56.37H0    V435.2c0.028,23.553,19.114,42.639,42.667,42.667H435.2c23.553-0.028,42.639-19.114,42.667-42.667V315.733H460.8z M401.067,460.8    h-59.733c-4.713,0-8.533-3.82-8.533-8.533s3.82-8.533,8.533-8.533h59.733c4.713,0,8.533,3.82,8.533,8.533    S405.78,460.8,401.067,460.8z M443.733,460.8H435.2c-4.713,0-8.533-3.82-8.533-8.533s3.821-8.533,8.533-8.533h8.533    c4.713,0,8.533,3.82,8.533,8.533S448.446,460.8,443.733,460.8z" fill="#fefefe"/>
	</g>
</g>
<g>
	<g>
		<path d="M0,213.333V230.4h17.499c0.307-5.719,0.935-11.417,1.88-17.067H0z" fill="#fefefe"/>
	</g>
</g>
<g>
	<g>
		<path d="M0,179.2v17.067h23.221c1.64-5.801,3.622-11.5,5.936-17.067H0z" fill="#fefefe"/>
	</g>
</g>
<g>
	<g>
		<path d="M269.696,213.333H71.637c-1.464,5.595-2.447,11.305-2.938,17.067h203.935C272.143,224.638,271.16,218.928,269.696,213.333    z" fill="#fefefe"/>
	</g>
</g>
<g>
	<g>
		<path d="M253.668,179.2H87.665c-3.865,5.354-7.202,11.07-9.965,17.067h185.933C260.87,190.27,257.533,184.554,253.668,179.2z" fill="#fefefe"/>
	</g>
</g>
<g>
	<g>
		<path d="M103.162,162.133L103.162,162.133h135.008C199.64,128,141.693,128,103.162,162.133z" fill="#fefefe"/>
	</g>
</g>
<g>
	<g>
		<path d="M262.045,315.733c-42.26,50.467-117.431,57.12-167.898,14.86c-5.381-4.506-10.354-9.479-14.86-14.86H57.87    c25.398,37.35,67.63,59.714,112.797,59.733c45.167-0.019,87.399-22.384,112.797-59.733H262.045z" fill="#fefefe"/>
	</g>
</g>
<g>
	<g>
		<path d="M59.213,281.6H41.056c1.952,5.842,4.3,11.544,7.028,17.067h19.28C64.198,293.203,61.472,287.496,59.213,281.6z" fill="#fefefe"/>
	</g>
</g>
<g>
	<g>
		<path d="M323.834,247.467c-0.307,5.719-0.935,11.417-1.88,17.067h19.379v-17.067H323.834z" fill="#fefefe"/>
	</g>
</g>
<g>
	<g>
		<rect x="460.8" y="247.466" width="17.067" height="17.067" fill="#fefefe"/>
	</g>
</g>
<g>
	<g>
		<rect x="409.6" y="179.199" width="34.133" height="17.067" fill="#fefefe"/>
	</g>
</g>
<g>
	<g>
		<rect x="460.8" y="281.599" width="17.067" height="17.067" fill="#fefefe"/>
	</g>
</g>
<g>
	<g>
		<rect x="409.6" y="247.466" width="34.133" height="17.067" fill="#fefefe"/>
	</g>
</g>
<g>
	<g>
		<rect x="409.6" y="281.599" width="34.133" height="17.067" fill="#fefefe"/>
	</g>
</g>
<g>
	<g>
		<rect x="460.8" y="213.333" width="17.067" height="17.067" fill="#fefefe"/>
	</g>
</g>
<g>
	<g>
		<path d="M435.2,0H42.667C19.114,0.028,0.028,19.114,0,42.667v119.467h37.85c42.22-73.353,135.911-98.591,209.264-56.37    c23.434,13.488,42.882,32.936,56.37,56.37h37.85v-25.6c0-4.713,3.82-8.533,8.533-8.533s8.533,3.82,8.533,8.533v25.6h34.133v-25.6    c0-4.713,3.82-8.533,8.533-8.533s8.533,3.82,8.533,8.533v25.6h34.133v-25.6c0-4.713,3.82-8.533,8.533-8.533    s8.533,3.82,8.533,8.533v25.6h17.067V42.667C477.839,19.114,458.753,0.028,435.2,0z M42.667,34.133h-8.533    c-4.713,0-8.533-3.82-8.533-8.533s3.82-8.533,8.533-8.533h8.533c4.713,0,8.533,3.82,8.533,8.533S47.38,34.133,42.667,34.133z     M136.533,34.133H76.8c-4.713,0-8.533-3.82-8.533-8.533s3.82-8.533,8.533-8.533h59.733c4.713,0,8.533,3.82,8.533,8.533    S141.246,34.133,136.533,34.133z" fill="#fefefe"/>
	</g>
</g>
<g>
	<g>
		<rect x="460.8" y="179.199" width="17.067" height="17.067" fill="#fefefe"/>
	</g>
</g>
<g>
	<g>
		<path d="M318.112,281.6c-1.64,5.801-3.622,11.5-5.936,17.067h29.157V281.6H318.112z" fill="#fefefe"/>
	</g>
</g>
<g>
	<g>
		<path d="M321.955,213.333c0.945,5.649,1.572,11.347,1.88,17.067h17.499v-17.067H321.955z" fill="#fefefe"/>
	</g>
</g>
<g>
	<g>
		<path d="M51.633,247.467H34.566c0.327,5.726,1.014,11.427,2.058,17.067h17.408C52.821,258.91,52.019,253.206,51.633,247.467z" fill="#fefefe"/>
	</g>
</g>
<g>
	<g>
		<rect x="409.6" y="213.333" width="34.133" height="17.067" fill="#fefefe"/>
	</g>
</g>
<g>
	<g>
		<path d="M312.176,179.2c2.314,5.567,4.296,11.266,5.936,17.067h23.221V179.2H312.176z" fill="#fefefe"/>
	</g>
</g>
<g>
	<g>
		<rect x="358.4" y="247.466" width="34.133" height="17.067" fill="#fefefe"/>
	</g>
</g>
<g>
	<g>
		<rect x="358.4" y="281.599" width="34.133" height="17.067" fill="#fefefe"/>
	</g>
</g>
<g>
	<g>
		<rect x="358.4" y="213.333" width="34.133" height="17.067" fill="#fefefe"/>
	</g>
</g>
<g>
	<g>
		<rect x="358.4" y="179.199" width="34.133" height="17.067" fill="#fefefe"/>
	</g>
</g>
<g>
</g>
<g>
</g>
<g>
</g>
<g>
</g>
<g>
</g>
<g>
</g>
<g>
</g>
<g>
</g>
<g>
</g>
<g>
</g>
<g>
</g>
<g>
</g>
<g>
</g>
<g>
</g>
<g>
</g>
</svg>
