<?xml version="1.0" encoding="iso-8859-1"?>
<!-- Generator: Adobe Illustrator 19.0.0, SVG Export Plug-In . SVG Version: 6.00 Build 0)  -->
<svg xmlns="http://www.w3.org/2000/svg" xmlns:xlink="http://www.w3.org/1999/xlink" version="1.1" id="Capa_1" x="0px" y="0px" viewBox="0 0 512.001 512.001" style="enable-background:new 0 0 512.001 512.001;" xml:space="preserve" width="512px" height="512px">
<g>
	<g>
		<path d="M376.625,118.309c-66.474-66.619-174.368-66.737-240.987-0.263c-0.088,0.088-0.175,0.175-0.263,0.263    c-3.332,3.332-3.332,8.735,0,12.067c3.332,3.332,8.735,3.332,12.067,0c59.813-59.955,156.905-60.07,216.86-0.257    c0.086,0.086,0.171,0.171,0.257,0.257c1.598,1.603,3.77,2.503,6.034,2.5c4.713-0.001,8.533-3.822,8.531-8.535    C379.123,122.078,378.224,119.908,376.625,118.309z" fill="#fefefe"/>
	</g>
</g>
<g>
	<g>
		<path d="M510.205,498.229l-55.708-71.625l12.679-12.679c9.983-10.007,9.983-26.206,0-36.212l-10.035-10.035    c50.416-78.409,50.389-179.038-0.068-257.42l10.103-10.104c9.983-10.007,9.983-26.206,0-36.212l-36.184-36.183    c-10.005-9.987-26.208-9.987-36.212,0l-10.106,10.106C306.318-12.62,205.68-12.621,127.324,37.861l-10.103-10.103    c-10.005-9.987-26.208-9.987-36.212,0L44.825,63.942c-9.983,10.007-9.983,26.206,0,36.212l10.106,10.106    C4.47,188.638,4.444,289.269,54.864,367.674l-10.039,10.039c-9.983,10.007-9.983,26.206,0,36.212l12.679,12.679L1.796,498.229    c-2.892,3.721-2.22,9.082,1.5,11.975c3.721,2.892,9.082,2.22,11.975-1.5l54.396-69.937l11.342,11.342    c10.007,9.983,26.206,9.983,36.212,0l10.053-10.053c23.705,15.281,49.965,26.176,77.526,32.164v22.714    c0.009,9.422,7.645,17.057,17.067,17.067h68.267c9.422-0.009,17.057-7.645,17.067-17.067v-22.714    c27.561-5.988,53.821-16.882,77.527-32.163l10.052,10.052c10.007,9.983,26.206,9.983,36.212,0l11.342-11.342l54.396,69.938    c2.893,3.721,8.254,4.393,11.975,1.5C512.426,507.312,513.097,501.951,510.205,498.229z M406.846,39.825    c3.387-3.208,8.692-3.208,12.079,0l36.183,36.183c3.322,3.341,3.322,8.738,0,12.079l-7.984,7.984    c-13.652-18.352-29.911-34.611-48.263-48.262L406.846,39.825z M56.892,76.008L56.892,76.008l36.183-36.183    c3.387-3.208,8.692-3.208,12.079,0l7.984,7.984C94.787,61.461,78.528,77.721,64.877,96.073l-7.985-7.985    C53.57,84.746,53.57,79.349,56.892,76.008z M105.154,438.042c-3.387,3.208-8.692,3.208-12.079,0l-36.183-36.184    c-1.602-1.6-2.5-3.773-2.492-6.038c-0.009-2.266,0.888-4.441,2.492-6.042l7.782-7.782c1.885,2.508,3.78,4.952,5.676,7.304    c12.504,15.316,26.855,29.027,42.724,40.821L105.154,438.042z M290.133,486.4c-0.006,4.71-3.823,8.527-8.533,8.533h-51.2    c-4.71-0.006-8.527-3.823-8.533-8.533v-17.067h68.267V486.4z M290.133,452.267h-68.267V435.2h68.267V452.267z M221.867,418.133    v-42.667c0.006-4.71,3.823-8.527,8.533-8.533h17.067v51.2H221.867z M290.133,418.133h-25.6v-51.2H281.6    c4.71,0.006,8.527,3.823,8.533,8.533V418.133z M238.933,281.6c-4.71-0.006-8.527-3.823-8.533-8.533V230.4    c0.006-4.71,3.823-8.527,8.533-8.533h34.133c4.71,0.006,8.527,3.823,8.533,8.533v42.667c-0.006,4.71-3.823,8.527-8.533,8.533    H238.933z M281.6,349.867h-17.067v-51.2h8.533c14.132-0.015,25.585-11.468,25.6-25.6V230.4c-0.015-14.132-11.468-25.585-25.6-25.6    h-34.133c-14.132,0.015-25.585,11.468-25.6,25.6v42.667c0.015,14.132,11.468,25.585,25.6,25.6h8.533v51.2H230.4    c-14.132,0.015-25.585,11.468-25.6,25.6v43.836C105.048,391.026,47.106,287.238,75.383,187.487S207.448,29.793,307.2,58.07    s157.694,132.065,129.417,231.817c-17.765,62.67-66.747,111.651-129.417,129.417v-43.836    C307.185,361.335,295.732,349.882,281.6,349.867z M381.054,422.105c-22.377,15.38-47.422,26.458-73.854,32.668V436.96    c109.516-28.277,175.374-139.98,147.097-249.497S314.316,12.09,204.8,40.367S29.426,180.347,57.703,289.863    C76.329,362.002,132.662,418.334,204.8,436.96v17.812c-26.439-6.213-51.49-17.295-73.871-32.681    c-17.796-12.145-33.734-26.809-47.317-43.533c-3.646-4.521-7.317-9.417-10.858-14.479c-51.529-75.46-51.491-174.804,0.096-250.225    l0,0C114.189,53.347,182.719,17.132,256,17.067c122.488,0.111,221.756,99.379,221.867,221.867    c0.082,44.63-13.365,88.237-38.567,125.071c-3.596,5.137-7.267,10.033-10.892,14.529    C414.816,395.273,398.865,409.95,381.054,422.105z M418.925,438.042c-3.387,3.208-8.692,3.208-12.079,0l-7.92-7.92    c15.878-11.802,30.235-25.521,42.745-40.847c1.882-2.336,3.77-4.77,5.655-7.279l7.782,7.782c3.322,3.341,3.322,8.738,0,12.079    l0,0.001L418.925,438.042z" fill="#fefefe"/>
	</g>
</g>
<g>
</g>
<g>
</g>
<g>
</g>
<g>
</g>
<g>
</g>
<g>
</g>
<g>
</g>
<g>
</g>
<g>
</g>
<g>
</g>
<g>
</g>
<g>
</g>
<g>
</g>
<g>
</g>
<g>
</g>
</svg>
