<svg version="1.1" xmlns="http://www.w3.org/2000/svg" xmlns:xlink="http://www.w3.org/1999/xlink" preserveAspectRatio="xMidYMid meet" viewBox="337 156 706 488"><g data-item-type="text" data-item="Business" id="logo__item--business" class="logo__item">
                <g class="logo__item__inner" transform="translate(805 482.1282226626331) scale(1 1) rotate(0 0 0)">
                    <text data-part-id="logo__item--business" dy="0" dominant-baseline="auto" alignment-baseline="auto" font-family="Montserrat" font-size="32px" fill="#4D4D4E" letter-spacing="0" font-weight="bold" font-style="normal" data-font-family="Montserrat" data-font-weight="bold" data-font-style="normal" data-ttf-url="/builder_assets/fontsttf/font-montserrat-bold-normal.ttf"></text>
                </g>
            </g><g data-item-type="image" data-item="Image" data-logo-item="" id="logo__item--logo_0" class="logo__item">
    <g class="logo__item__inner" transform="translate(301.2990448737361 24.5) scale(5.150624710724565 5.150624710724565) rotate(0 0 0)">
        
<g>
	<g>
		<path fill="#F05965" d="M76.6,55.2C64.7,55.2,55,65,55,76.9c0,12,9.7,21.7,21.7,21.7c12,0,21.7-9.7,21.7-21.7    C98.3,65,88.6,55.2,76.6,55.2z M94.1,72.6c0.4,1.3,0.6,2.8,0.6,4.2c0,8.9-7.2,16.1-16.1,16.1c-1.4,0-2.8-0.2-4.2-0.5    c-0.8-0.2-1.3-1-1.1-1.9c0.2-0.8,1-1.3,1.9-1.1c1.1,0.3,2.2,0.4,3.4,0.4c7.2,0,13.1-5.9,13.1-13.1c0-1.2-0.1-2.3-0.4-3.4    c-0.2-0.8,0.3-1.6,1.1-1.9C93,71.3,93.8,71.8,94.1,72.6z" data-part-id="logo__item--logo_0__0"></path>
		<path fill="#F7BB17" d="M129.9,32.2H46.1c-0.7,0-1.3-0.3-1.7-0.9l-2.2-3.3c-0.7-1.1-2-1.8-3.3-1.8h-7.6c-1.3,0-2.5,0.7-3.3,1.8    L26,31.3c-0.4,0.5-1,0.9-1.7,0.9h-2.9c-7.6,0-13.8,6.2-13.8,13.8v59.1c0,7.6,6.2,13.8,13.8,13.8h108.4c7.6,0,13.8-6.2,13.8-13.8    V46C143.7,38.4,137.5,32.2,129.9,32.2z M76.6,103.8c-14.8,0-26.9-12-26.9-26.9c0-14.8,12-26.9,26.9-26.9c14.8,0,26.9,12,26.9,26.9    C103.5,91.8,91.5,103.8,76.6,103.8z" data-part-id="logo__item--logo_0__1"></path>
	</g>
	<path fill="#aad3f4" d="M46.2,73.7c-1,0-1.8-0.8-1.8-1.8c0-20.1,16.4-36.5,36.5-36.5c1,0,1.8,0.8,1.8,1.8s-0.8,1.8-1.8,1.8   c-18.1,0-32.9,14.8-32.9,32.9C47.9,73,47.1,73.7,46.2,73.7z" data-part-id="logo__item--logo_0__2"></path>
	<path fill="#98ea9a" d="M51.2,96.6c-0.5,0-0.9-0.2-1.3-0.5c-14.2-14.2-14.2-37.3,0-51.6c0.7-0.7,1.8-0.7,2.5,0   c0.7,0.7,0.7,1.8,0,2.5c-12.8,12.8-12.8,33.7,0,46.5c0.7,0.7,0.7,1.8,0,2.5C52.2,96.4,51.7,96.6,51.2,96.6z" data-part-id="logo__item--logo_0__3"></path>
	<path fill="#34C5ED" d="M71.3,109.5c-9.7,0-18.9-3.8-25.8-10.7c-6.9-6.9-10.7-16-10.7-25.8c0-1,0.8-1.8,1.8-1.8   c1,0,1.8,0.8,1.8,1.8c0,8.8,3.4,17.1,9.6,23.3c6.2,6.2,14.5,9.6,23.3,9.6c1,0,1.8,0.8,1.8,1.8C73.1,108.7,72.3,109.5,71.3,109.5z" data-part-id="logo__item--logo_0__4"></path>
	<path fill="#F05965" d="M70.5,115c-9.7,0-18.9-3.8-25.8-10.7c-0.7-0.7-0.7-1.8,0-2.5c0.7-0.7,1.8-0.7,2.5,0   c6.2,6.2,14.5,9.6,23.3,9.6c8.8,0,17-3.4,23.3-9.6c0.7-0.7,1.8-0.7,2.5,0c0.7,0.7,0.7,1.8,0,2.5C89.4,111.2,80.3,115,70.5,115z" data-part-id="logo__item--logo_0__5"></path>
	<path fill="#E73393" d="M72.9,119.8c-1,0-1.8-0.8-1.8-1.8c0-1,0.8-1.8,1.8-1.8c18.1,0,32.9-14.8,32.9-32.9c0-1,0.8-1.8,1.8-1.8   c1,0,1.8,0.8,1.8,1.8C109.4,103.4,93,119.8,72.9,119.8z" data-part-id="logo__item--logo_0__6"></path>
	<path fill="#C94197" d="M102.6,110.8c-0.5,0-0.9-0.2-1.3-0.5c-0.7-0.7-0.7-1.8,0-2.5c6.2-6.2,9.6-14.5,9.6-23.3   c0-8.8-3.4-17.1-9.6-23.3c-0.7-0.7-0.7-1.8,0-2.5c0.7-0.7,1.8-0.7,2.5,0c6.9,6.9,10.7,16,10.7,25.8c0,9.7-3.8,18.9-10.7,25.8   C103.5,110.6,103.1,110.8,102.6,110.8z" data-part-id="logo__item--logo_0__7"></path>
	<path fill="#A0CC3A" d="M118.2,90.7c-0.1,0-0.2,0-0.3,0c-1-0.2-1.6-1.1-1.4-2.1c3.4-17.8-8.4-35.1-26.3-38.4   c-1-0.2-1.6-1.1-1.4-2.1c0.2-1,1.1-1.6,2.1-1.4c19.8,3.7,32.8,22.8,29.1,42.6C119.8,90.2,119.1,90.7,118.2,90.7z" data-part-id="logo__item--logo_0__8"></path>
	<path fill="#EC2127" d="M114.9,59.9c-0.6,0-1.1-0.3-1.5-0.8c-5-7.3-12.4-12.1-21.1-13.8c-8.6-1.6-17.4,0.2-24.6,5.2   c-0.8,0.6-1.9,0.3-2.5-0.5c-0.6-0.8-0.3-1.9,0.5-2.5c8-5.5,17.7-7.5,27.3-5.7c9.6,1.8,17.9,7.2,23.4,15.3c0.6,0.8,0.3,1.9-0.5,2.5   C115.6,59.8,115.3,59.9,114.9,59.9z" data-part-id="logo__item--logo_0__9"></path>
</g>

    </g>
</g></svg>