<?xml version="1.0" encoding="iso-8859-1"?>
<!-- Generator: Adobe Illustrator 19.0.0, SVG Export Plug-In . SVG Version: 6.00 Build 0)  -->
<svg xmlns="http://www.w3.org/2000/svg" xmlns:xlink="http://www.w3.org/1999/xlink" version="1.1" id="Capa_1" x="0px" y="0px" viewBox="0 0 512.002 512.002" style="enable-background:new 0 0 512.002 512.002;" xml:space="preserve" width="512px" height="512px">
<g>
	<g>
		<circle cx="284.346" cy="227.247" r="7.5" fill="#fefefe"/>
	</g>
</g>
<g>
	<g>
		<circle cx="248.026" cy="263.567" r="7.5" fill="#fefefe"/>
	</g>
</g>
<g>
	<g>
		<circle cx="211.707" cy="299.886" r="7.5" fill="#fefefe"/>
	</g>
</g>
<g>
	<g>
		<circle cx="175.377" cy="336.206" r="7.5" fill="#fefefe"/>
	</g>
</g>
<g>
	<g>
		<circle cx="139.058" cy="372.525" r="7.5" fill="#fefefe"/>
	</g>
</g>
<g>
	<g>
		<circle cx="102.738" cy="408.845" r="7.5" fill="#fefefe"/>
	</g>
</g>
<g>
	<g>
		<path d="M503.669,17.208l-8.878-8.877c-6.317-6.317-15.372-9.321-24.224-8.039c-16.07,2.332-41.577,10.83-72.37,37.466    c-12.859,11.123-7.672,22.056-6.871,24.568l-61.129,61.128l-50.155,35.865c-12.703,9.215-8.118,19.379-7.419,21.71    l-156.287,156.29c-2.929,2.929-2.929,7.678,0,10.606c1.464,1.464,5.674,4.067,10.606,0l154.622-154.622l37.133,37.133    L107.064,442.07L69.93,404.936l34.607-34.607c2.929-2.929,2.929-7.678,0-10.606c-2.929-2.929-7.678-2.929-10.606,0l-37.354,37.353    c-1.494-0.296-20.285-3.086-27.49,18.957c-7.561-0.414-15.26,2.257-21.023,8.02c-10.753,10.753-10.753,28.25,0,39.003    l40.878,40.878C54.319,509.311,61.382,512,68.445,512c7.063,0,14.125-2.688,19.503-8.065c5.776-5.777,8.445-13.5,8.015-21.078    c21.715-3.535,19.258-25.94,18.962-27.434l216.047-216.047c1.821,0.546,12.036,4.95,21.711-7.42l35.864-50.153l61.129-61.129    c2.265,0.722,11.187,6.51,24.568-6.871c5.075-5.075,9.076-10.932,12.963-16.405c2.399-3.377,1.605-8.059-1.771-10.458    c-3.377-2.399-8.061-1.605-10.457,1.772c-3.603,5.071-7.703,10.156-12.045,15.239c-4.593,5.377-10.398,2.051-12.023,0.426    l-43.285-43.285c-1.625-1.625-4.951-7.43,0.427-12.023c29.667-25.345,53.148-32.26,64.673-33.932    c4.192-0.608,8.476,0.813,11.463,3.801l8.877,8.877c2.988,2.988,4.41,7.274,3.803,11.464c-1.089,7.502-3.502,15.539-7.174,23.888    c-1.668,3.792,0.055,8.217,3.846,9.885c3.79,1.668,8.218-0.054,9.885-3.846c4.217-9.588,7.005-18.932,8.288-27.774    C512.992,32.582,509.987,23.526,503.669,17.208z M97.985,465.822c-1.915,1.915-4.694,2.735-7.344,2.242    c-0.808-1.094-1.705-2.142-2.695-3.132l-3.791-3.791c-2.929-2.929-7.678-2.929-10.606,0.001    c-2.929,2.929-2.928,7.678,0.001,10.606l3.791,3.79c4.905,4.905,4.904,12.886,0,17.792c-4.905,4.905-12.886,4.905-17.791,0    l-40.878-40.878c-4.905-4.905-4.905-12.886,0-17.792c4.904-4.905,12.886-4.905,17.792,0l15.45,15.45    c2.929,2.929,7.678,2.929,10.606,0c2.929-2.929,2.929-7.678,0-10.606l-15.45-15.451c-0.986-0.986-2.03-1.88-3.119-2.685    c-0.51-2.7,0.298-5.423,2.229-7.353c1.54-1.54,6.332-5.169,11.618,0l40.189,40.189C102.742,459.24,99.524,464.282,97.985,465.822z     M340.48,223.232c-1.107,1.548-2.639,1.892-3.453,1.959c-0.818,0.069-2.383-0.021-3.728-1.367l-45.123-45.123    c-1.347-1.346-1.435-2.914-1.367-3.728c0.066-0.814,0.411-2.346,1.959-3.454l45.489-32.529l38.751,38.75L340.48,223.232z     M414.016,103.539l-24.898,24.677l-5.83-5.882l24.898-24.676L414.016,103.539z M407.789,82.471    c-3.553,0.097-7.078,1.476-9.795,4.17l-25.631,25.402c-2.748,2.724-4.271,6.354-4.289,10.224    c-0.017,3.869,1.474,7.513,4.197,10.26l6.555,6.614c0,0,0,0,0.001,0c2.827,2.853,6.557,4.281,10.288,4.281    c3.687,0,7.376-1.395,10.195-4.189l25.632-25.403c2.764-2.74,4.179-6.327,4.265-9.941l8.019,8.019l-54.419,54.419l-37.135-37.134    l54.419-54.419L407.789,82.471z" fill="#fefefe"/>
	</g>
</g>
<g>
</g>
<g>
</g>
<g>
</g>
<g>
</g>
<g>
</g>
<g>
</g>
<g>
</g>
<g>
</g>
<g>
</g>
<g>
</g>
<g>
</g>
<g>
</g>
<g>
</g>
<g>
</g>
<g>
</g>
</svg>
