<?xml version="1.0" encoding="iso-8859-1"?>
<!-- Generator: Adobe Illustrator 19.0.0, SVG Export Plug-In . SVG Version: 6.00 Build 0)  -->
<svg xmlns="http://www.w3.org/2000/svg" xmlns:xlink="http://www.w3.org/1999/xlink" version="1.1" id="Capa_1" x="0px" y="0px" viewBox="0 0 512 512" style="enable-background:new 0 0 512 512;" xml:space="preserve" width="512px" height="512px">
<g>
	<g>
		<path d="M494.932,416.679c-1.124,0-2.246,0.111-3.349,0.332l-18.742,3.746c-6.701,1.37-12.571,5.374-16.293,11.112h-58.098    c34.577-33.588,54.004-79.795,53.816-128c-0.112-98.923-80.277-179.088-179.2-179.2c-48.204-0.186-94.411,19.241-128,53.816    v-11.149c0-72.769,52.231-98.447,61.422-102.4h6.845c6.756,0.05,13.244-2.639,17.983-7.454c4.905-4.758,7.656-11.312,7.617-18.146    c-0.015-14.132-11.468-25.585-25.6-25.6H25.6c-6.757-0.053-13.246,2.637-17.983,7.454C2.712,25.948-0.039,32.502,0,39.336    c0.015,14.132,11.468,25.585,25.6,25.6h6.805c8.601,3.765,61.461,29.893,61.461,102.4v145.067c0.048,0.742,0.196,1.475,0.44,2.178    c5.509,94.667,83.934,168.585,178.76,168.489h183.482c3.722,5.738,9.592,9.742,16.293,11.113l18.742,3.746    c1.111,0.224,2.242,0.337,3.375,0.338c9.415-0.019,17.039-7.656,17.042-17.071v-47.45    C512,424.319,504.358,416.678,494.932,416.679z M25.6,47.869c-4.711-0.005-8.529-3.822-8.533-8.533    c-0.005-2.301,0.942-4.501,2.617-6.079c1.555-1.591,3.692-2.477,5.917-2.454h187.733c4.711,0.005,8.529,3.822,8.533,8.533    c0.005,2.298-0.938,4.496-2.608,6.075c-1.559,1.591-3.698,2.479-5.925,2.458H25.6z M64.075,64.936h110.458    c-3.454,2.791-6.758,5.762-9.9,8.9c-24.422,24.885-37.65,58.647-36.634,93.5v31.317c-0.8,1.098-1.458,2.268-2.231,3.38    c-2.001,2.878-3.956,5.777-5.775,8.748c-1.044,1.706-2.014,3.442-2.997,5.176c-1.601,2.825-3.134,5.675-4.572,8.572    c-0.469,0.944-1.039,1.843-1.492,2.795v-59.988C112.206,127.749,94.864,89.851,64.075,64.936z M452.267,466.003h-179.2    c-86.455,0.08-157.725-67.769-161.893-154.123l0.001-0.006c-0.167-2.642-0.242-5.283-0.242-8.004    c-0.005-8.779,0.691-17.545,2.083-26.214c3.437-21.43,11.214-41.932,22.854-60.25c2.335-3.681,4.828-7.28,7.479-10.799    l0.001-0.002l0.007-0.01c53.723-71.637,155.348-86.159,226.985-32.436s86.159,155.348,32.436,226.985    c-8.654,11.54-18.809,21.873-30.196,30.726h-31.292c70.674-37.698,97.406-125.551,59.708-196.225s-125.551-97.406-196.225-59.708    c-70.674,37.698-97.406,125.551-59.708,196.225c25.213,47.268,74.429,76.787,128,76.775h179.2V466.003z M230.4,312.402v34.133    h-17.067v-34.133H230.4z M213.334,295.336v-34.133H230.4v34.133H213.334z M230.4,363.603c0,23.564,19.103,42.667,42.667,42.667    s42.667-19.103,42.667-42.667H332.8c0,4.713,3.821,8.533,8.533,8.533s8.533-3.82,8.533-8.533v-17.067    c0-4.713-3.82-8.533-8.533-8.533s-8.533,3.82-8.533,8.533h-17.067v-34.133H332.8c0,4.713,3.821,8.533,8.533,8.533    s8.533-3.82,8.533-8.533v-17.067c0-4.713-3.82-8.533-8.533-8.533s-8.533,3.82-8.533,8.533h-17.067v-34.133H332.8    c0,4.713,3.821,8.533,8.533,8.533s8.533-3.82,8.533-8.533v-17.067c0-4.713-3.82-8.533-8.533-8.533s-8.533,3.82-8.533,8.533    h-17.067c0-23.564-19.102-42.667-42.667-42.667S230.4,220.572,230.4,244.136h-17.067v-53.389    c62.475-33.079,139.938-9.249,173.017,53.227s9.249,139.938-53.227,173.017c-37.466,19.838-82.324,19.838-119.79,0v-53.389H230.4z     M298.667,261.202v34.133h-51.2v-34.133H298.667z M247.467,244.136c0-14.138,11.462-25.6,25.6-25.6    c14.138,0,25.6,11.461,25.6,25.6H247.467z M298.667,312.402v34.133h-51.2v-34.133H298.667z M298.667,363.603    c0,14.138-11.462,25.6-25.6,25.6c-14.139,0-25.6-11.461-25.6-25.6H298.667z M178.97,217.393    c5.279-5.74,11.069-10.988,17.297-15.681v204.315c-6.228-4.693-12.018-9.942-17.297-15.681c0.105-0.375,0.182-0.757,0.23-1.143    V218.536C179.152,218.15,179.075,217.768,178.97,217.393z M162.134,240.283v127.172c-11.177-19.328-17.063-41.26-17.067-63.586    C145.07,281.543,150.957,259.611,162.134,240.283z M494.934,481.194l-18.742-3.746c-3.984-0.808-6.85-4.306-6.858-8.37v-23.217    c0.008-4.065,2.874-7.563,6.858-8.371l18.742-3.745l0.017,47.454L494.934,481.194z" fill="#fefefe"/>
	</g>
</g>
<g>
</g>
<g>
</g>
<g>
</g>
<g>
</g>
<g>
</g>
<g>
</g>
<g>
</g>
<g>
</g>
<g>
</g>
<g>
</g>
<g>
</g>
<g>
</g>
<g>
</g>
<g>
</g>
<g>
</g>
</svg>
