<svg version="1.1" xmlns="http://www.w3.org/2000/svg" xmlns:xlink="http://www.w3.org/1999/xlink" preserveAspectRatio="xMidYMid meet" viewBox="622 227 125 196"><g data-item-type="text" data-item="Business" id="logo__item--business" class="logo__item">\
                <g class="logo__item__inner" transform="translate(642.6015625 415.1111094156901) scale(1 1) rotate(0 0 0)">\
                    <text data-part-id="logo__item--business" dy="0" dominant-baseline="auto" alignment-baseline="auto" font-family="Montserrat" font-size="32px" fill="#D96327" letter-spacing="0" font-weight="bold" font-style="normal" data-font-family="Montserrat" data-font-weight="bold" data-font-style="normal" data-ttf-url="/builder_assets/fontsttf/font-montserrat-bold-normal.ttf">GRAM</text>\
                </g>\
            </g><g data-item-type="image" data-item="Image" data-logo-item="" id="logo__item--logo_0" class="logo__item">\
    <g class="logo__item__inner" transform="translate(619.6666666666666 257) scale(0.8888888888888888 0.8888888888888888) rotate(0 0 0)">\
        \
<g>\
	<path fill="none" d="M102.4,31H75.1H44.7c-1.3,0-2.7,0.8-2.7,2.1V41v0h33.1H105v0v-7.9C105,31.8,103.7,31,102.4,31z" data-part-id="logo__item--logo_0__0"></path>\
	<rect x="15" y="126" fill="#D96327" width="10" height="8" data-part-id="logo__item--logo_0__1"></rect>\
	<path fill="#E1AB25" d="M61.3,64.5c3.7-2.3,8.1-3.7,12.8-3.7c0.3,0,0.9,0,0.9,0.1V41H42l0,0h-9l0,0H13.4C9.5,41,6,44.5,6,48.4V82   h44C51,75,55.3,68.3,61.3,64.5z" data-part-id="logo__item--logo_0__2"></path>\
	<path fill="#F7BB17" d="M133.6,41H114l0,0h-9l0,0H75v19.9C87,61.3,96.8,70,98.3,82H141V48.4C141,44.5,137.5,41,133.6,41z M128,58   h-19V47h19V58z" data-part-id="logo__item--logo_0__3"></path>\
	<path fill="#D96327" d="M42,33.1c0-1.3,1.4-2.1,2.7-2.1H75V21H44.7C38.2,21,33,26.6,33,33.1V41h9V33.1z" data-part-id="logo__item--logo_0__4"></path>\
	<path fill="#694E32" d="M74.1,109.6c-4.7,0-9.1-1.4-12.8-3.7c-6.9-4.3-11.5-12-11.5-20.7c0-0.9,0.1-1.8,0.2-2.7   c0-0.2,0-0.6,0.1-0.6H6v0.6v36c0,3.9,3.5,7.5,7.4,7.5h1.2h10.6H75v-16.4C75,109.6,74.4,109.6,74.1,109.6z" data-part-id="logo__item--logo_0__5"></path>\
	<path fill="#75573A" d="M98.4,82.6c0.1,0.9,0.1,1.8,0.1,2.6c0,13.1-10.5,23.8-23.5,24.4V126h48h10.6c3.9,0,7.4-3.6,7.4-7.5v-36V82   H98.3C98.4,82,98.4,82.4,98.4,82.6z" data-part-id="logo__item--logo_0__6"></path>\
	<path fill="#694E32" d="M61,76.6c-1,1.8-1.8,3.8-2.2,5.9c-0.2,0.9-0.3,1.7-0.3,2.6c0,3.2,1.5,6.1,2.5,8.6V82.6V76.6z" data-part-id="logo__item--logo_0__7"></path>\
	<path fill="#75573A" d="M61,76.6v5.9v11.2c2,2.7,4.5,4.7,7.6,5.9c1.7,0.6,3.6,1,5.5,1c0.3,0,0.7,0,1,0c1.6-0.1,3.1-0.4,4.5-1   c5.9-2.2,10-7.8,10-14.5c0-0.9-0.1-1.8-0.2-2.6c-1.2-7-7.1-12.3-14.2-12.8c-0.3,0-0.8,0-1.1,0C68.7,69.8,64,72.5,61,76.6z" data-part-id="logo__item--logo_0__8"></path>\
	<rect x="123" y="126" fill="#F16B24" width="11" height="8" data-part-id="logo__item--logo_0__9"></rect>\
	<path fill="#F16B24" d="M102.4,31c1.3,0,2.6,0.8,2.6,2.1V41h9v-7.9c0-6.5-5.1-12.1-11.6-12.1H75v10H102.4z" data-part-id="logo__item--logo_0__10"></path>\
	<path fill="#F16B24" d="M61.3,64.5C55.3,68.3,51,74.6,50,82c0,0.2,0,0.4-0.1,0.6c-0.1,0.9-0.2,1.7-0.2,2.6   c0,8.7,4.6,16.4,11.6,20.7c3.7,2.3,8.1,3.7,12.8,3.7c0.3,0,0.6,0,1,0c13-0.5,23.4-11.2,23.4-24.4c0-0.9-0.1-1.8-0.1-2.6   c0-0.2-0.1-0.4-0.1-0.6c-1.5-11.6-11.3-20.7-23.2-21.1c-0.3,0-0.6,0-1,0C69.5,60.8,65.1,62.2,61.3,64.5z M89.4,82.6   c0.1,0.9,0.2,1.7,0.2,2.6c0,6.6-4.2,12.3-10,14.5c-1.4,0.5-2.9,0.9-4.4,1c-0.3,0-0.6,0-1,0c-1.9,0-3.7-0.4-5.4-1   c-3-1.1-5.6-3.2-7.4-5.9c-1.7-2.5-2.6-5.4-2.6-8.6c0-0.9,0.1-1.8,0.2-2.6c0.4-2.2,1.2-4.2,2.4-5.9c2.8-4.1,7.5-6.9,12.8-6.9   c0.3,0,0.6,0,1,0C82.3,70.3,88.2,75.6,89.4,82.6z" data-part-id="logo__item--logo_0__11"></path>\
	<rect x="109" y="47" fill="#F16B24" width="19" height="11" data-part-id="logo__item--logo_0__12"></rect>\
</g>\
\
    </g>\
</g><g data-item-type="shape" data-item="Shape" data-logo-item="" id="logo__item--shape_1" class="logo__item">\
    <g class="logo__item__inner" transform="translate(633 199.5) scale(1 1) rotate(0 0 0)">\
        \
<g>\
	<path fill="#091117" d="M23.5,48.7c0.7-0.1,1.3-0.5,1.8-0.9c0.4-0.4,0.6-1.1,0.6-1.8c0-0.7-0.2-1.2-0.6-1.7   c-0.4-0.4-0.9-0.4-1.6-0.5c-0.4,0-1.7,0.2-3.7,0.2H17v5h3.3C22,49,23.1,48.7,23.5,48.7z" data-part-id="logo__item--shape_1__0"></path>\
	<path fill="#091117" d="M24.8,52.8C24.2,52.6,22.9,53,21,53h-4v5h4.5c1.6,0,2.6-0.1,3-0.2c0.6-0.1,1.2-0.4,1.6-0.9   c0.4-0.5,0.6-1.1,0.6-1.9c0-0.6-0.2-1-0.5-1.4C25.9,53.1,25.4,53,24.8,52.8z" data-part-id="logo__item--shape_1__1"></path>\
	<path fill="#091117" d="M96,37.4c0-3.5-2.9-6.4-6.4-6.4H10.4C6.9,31,4,33.9,4,37.4v26.2c0,3.5,2.9,6.4,6.4,6.4h79.2   c3.5,0,6.4-2.9,6.4-6.4V37.4z M30.5,58.1c-0.5,0.9-1.1,1.7-1.9,2.2c-0.8,0.6-1.8,1.2-2.9,1.3C25,61.7,23.2,62,20.4,62H13V40h8.7   c1.7,0,3,0,3.8,0.1c0.8,0.1,1.6,0.4,2.3,0.9c0.7,0.5,1.2,1,1.7,1.8c0.4,0.8,0.7,1.6,0.7,2.5c0,1-0.3,1.9-0.8,2.8   c-0.5,0.8-1.3,1.5-2.2,1.9c1.3,0.4,2.3,1,3,2c0.7,0.9,1.1,2,1.1,3.3C31.2,56.2,31,57.2,30.5,58.1z M51,62H35V40h16v4H39v5h12v4H39   v5h12V62z M64,62h-5V44h-6v-4h18v4h-7V62z M86.1,62l-1.9-6h-8.7l-1.8,6h-4.6l8.4-22h4.6l8.7,22H86.1z" data-part-id="logo__item--shape_1__2"></path>\
	<polygon fill="#091117" points="76.9,53 82.8,53 79.8,45" data-part-id="logo__item--shape_1__3"></polygon>\
</g>\
\
    </g>\
</g></svg>