<?xml version="1.0" encoding="iso-8859-1"?>
<!-- Generator: Adobe Illustrator 19.0.0, SVG Export Plug-In . SVG Version: 6.00 Build 0)  -->
<svg xmlns="http://www.w3.org/2000/svg" xmlns:xlink="http://www.w3.org/1999/xlink" version="1.1" id="Capa_1" x="0px" y="0px" viewBox="0 0 477.836 477.836" style="enable-background:new 0 0 477.836 477.836;" xml:space="preserve" width="512px" height="512px">
<g>
	<g>
		<path d="M408.111,106.954c-3.339-3.324-8.738-3.322-12.075,0.004L106.91,396.079c-3.327,3.339-3.323,8.74,0.009,12.075    l47.904,47.904L331.51,279.37l0.008-0.012l0.009-0.005l52.208-52.208l0.009-0.012l0.008-0.005l72.263-72.261L408.111,106.954z" fill="#fefefe"/>
	</g>
</g>
<g>
	<g>
		<path d="M180.917,454.097l-14.027,14.027l7.254,7.254c3.374,3.22,8.682,3.222,12.058,0.004l7.977-7.977L180.917,454.097z" fill="#fefefe"/>
	</g>
</g>
<g>
	<g>
		
			<rect x="196.703" y="432.248" transform="matrix(0.7083 -0.7059 0.7059 0.7083 -251.4722 274.6764)" width="19.891" height="18.79" fill="#fefefe"/>
	</g>
</g>
<g>
	<g>
		<path d="M467.694,101.412l-91.366-91.366c-11.23-10.729-28.912-10.729-40.142,0l-0.425,0.425l34.175,34.175    c9.973,10.005,9.977,26.191,0.009,36.2L80.81,369.974c-10.007,9.976-26.199,9.978-36.208,0.004v-0.004L10.431,335.8l-0.496,0.495    c-11.058,11.096-11.058,29.046,0,40.142l91.375,91.366c11.231,10.725,28.91,10.725,40.142,0l0.491-0.491l-47.099-47.096    c-9.973-10.005-9.977-26.191-0.008-36.2L383.969,94.887c10.007-9.976,26.199-9.978,36.208-0.004l47.092,47.1l0.425-0.425    C478.76,130.464,478.76,112.506,467.694,101.412z" fill="#fefefe"/>
	</g>
</g>
<g>
	<g>
		<path d="M36.602,257.549L2.494,291.658c-3.325,3.337-3.325,8.734,0,12.071l54.175,54.175c3.335,3.333,8.74,3.333,12.075,0    l34.106-34.106L36.602,257.549z M57.494,313.979c-0.395,1.052-1.005,2.01-1.792,2.813c-1.63,1.573-3.802,2.459-6.067,2.475    c-3.473,0.08-6.619-2.039-7.85-5.287c-0.911-2.067-0.911-4.421,0-6.487l0,0c0.436-1.032,1.042-1.984,1.792-2.817    c3.425-3.158,8.7-3.158,12.125,0c0.75,0.832,1.356,1.784,1.792,2.817C58.394,309.56,58.394,311.91,57.494,313.979z" fill="#fefefe"/>
	</g>
</g>
<g>
	<g>
		<path d="M468.777,37.12L440.702,9.046c-3.379-3.22-8.69-3.218-12.067,0.004l-14.534,14.529l40.15,40.142l14.525-14.53    C472.102,45.854,472.102,40.457,468.777,37.12z" fill="#fefefe"/>
	</g>
</g>
<g>
	<g>
		
			<rect x="41.041" y="133.412" transform="matrix(0.7071 -0.7071 0.7071 0.7071 -74.6861 180.2032)" width="278.282" height="93.688" fill="#fefefe"/>
	</g>
</g>
<g>
	<g>
		<path d="M23.518,414.166L8.985,428.695c-3.325,3.337-3.325,8.734,0,12.071l28.075,28.075c3.377,3.221,8.689,3.221,12.067,0    l14.533-14.533L23.518,414.166z" fill="#fefefe"/>
	</g>
</g>
<g>
	<g>
		
			<rect x="222.845" y="406.111" transform="matrix(0.707 -0.7072 0.7072 0.707 -225.6514 286.3791)" width="19.866" height="18.79" fill="#fefefe"/>
	</g>
</g>
<g>
	<g>
		<path d="M357.86,56.708L317.673,16.52l-0.009-0.005l-0.012-0.016L303.685,2.533c-3.336-3.324-8.733-3.322-12.067,0.004    l-34.106,34.107l66.248,66.248l34.108-34.108C361.195,65.444,361.192,60.042,357.86,56.708z M318.61,52.941    c-0.463,1.037-1.097,1.989-1.875,2.817c-1.636,1.558-3.8,2.442-6.059,2.475c-0.545-0.013-1.089-0.071-1.625-0.171    c-0.564-0.077-1.111-0.25-1.617-0.513c-0.527-0.17-1.02-0.429-1.458-0.767c-1.42-0.926-2.52-2.267-3.15-3.842    c-0.441-1.024-0.674-2.126-0.683-3.242c0.014-0.573,0.07-1.144,0.167-1.708c0.093-0.534,0.267-1.052,0.517-1.533    c0.218-0.53,0.475-1.044,0.767-1.538c0.345-0.447,0.715-0.874,1.108-1.279c0.369-0.406,0.799-0.751,1.275-1.025    c0.438-0.338,0.932-0.597,1.458-0.767c0.505-0.262,1.052-0.436,1.617-0.513c1.664-0.34,3.391-0.161,4.95,0.513    c1.019,0.413,1.948,1.022,2.733,1.792c0.391,0.384,0.735,0.813,1.025,1.279c0.315,0.494,0.599,1.008,0.85,1.538    c0.18,0.5,0.322,1.012,0.425,1.533c0.144,0.557,0.203,1.133,0.175,1.708C319.225,50.809,319.021,51.91,318.61,52.941z" fill="#fefefe"/>
	</g>
</g>
<g>
	<g>
		<rect x="405.563" y="223.422" transform="matrix(0.707 -0.7072 0.7072 0.707 -42.918 362.035)" width="19.866" height="18.791" fill="#fefefe"/>
	</g>
</g>
<g>
	<g>
		<rect x="431.683" y="197.275" transform="matrix(0.7072 -0.707 0.707 0.7072 -16.8132 372.7432)" width="19.857" height="18.79" fill="#fefefe"/>
	</g>
</g>
<g>
	<g>
		<rect x="379.447" y="249.523" transform="matrix(0.7072 -0.707 0.707 0.7072 -69.045 351.1236)" width="19.866" height="18.79" fill="#fefefe"/>
	</g>
</g>
<g>
	<g>
		<path d="M475.342,174.198c-0.002-0.002-0.004-0.004-0.007-0.007h0l-7.256-7.257l-14.01,14.011l13.288,13.287l7.979-7.979    C478.666,182.926,478.669,177.529,475.342,174.198z" fill="#fefefe"/>
	</g>
</g>
<g>
	<g>
		
			<rect x="327.229" y="301.728" transform="matrix(0.7072 -0.7071 0.7071 0.7072 -121.2466 329.4994)" width="19.866" height="18.79" fill="#fefefe"/>
	</g>
</g>
<g>
	<g>
		
			<rect x="353.335" y="275.614" transform="matrix(0.7071 -0.7072 0.7072 0.7071 -95.1289 340.3824)" width="19.866" height="18.79" fill="#fefefe"/>
	</g>
</g>
<g>
	<g>
		
			<rect x="301.12" y="327.836" transform="matrix(0.7071 -0.7071 0.7071 0.7071 -147.3541 318.7162)" width="19.857" height="18.791" fill="#fefefe"/>
	</g>
</g>
<g>
	<g>
		
			<rect x="275.002" y="353.933" transform="matrix(0.7071 -0.7071 0.7071 0.7071 -173.4553 307.886)" width="19.866" height="18.79" fill="#fefefe"/>
	</g>
</g>
<g>
	<g>
		
			<rect x="248.953" y="380.03" transform="matrix(0.7071 -0.7071 0.7071 0.7071 -199.546 297.0884)" width="19.806" height="18.79" fill="#fefefe"/>
	</g>
</g>
<g>
</g>
<g>
</g>
<g>
</g>
<g>
</g>
<g>
</g>
<g>
</g>
<g>
</g>
<g>
</g>
<g>
</g>
<g>
</g>
<g>
</g>
<g>
</g>
<g>
</g>
<g>
</g>
<g>
</g>
</svg>
