<?xml version="1.0" encoding="iso-8859-1"?>
<!-- Generator: Adobe Illustrator 19.0.0, SVG Export Plug-In . SVG Version: 6.00 Build 0)  -->
<svg xmlns="http://www.w3.org/2000/svg" xmlns:xlink="http://www.w3.org/1999/xlink" version="1.1" id="Capa_1" x="0px" y="0px" viewBox="0 0 512 512" style="enable-background:new 0 0 512 512;" xml:space="preserve" width="512px" height="512px">
<g>
	<g>
		<path d="M452.267,0H59.733C26.759,0.037,0.037,26.759,0,59.733v392.533C0.037,485.241,26.759,511.963,59.733,512h392.533    c32.974-0.037,59.696-26.759,59.733-59.733V59.733C511.963,26.759,485.241,0.037,452.267,0z M59.733,494.933    c-23.553-0.028-42.639-19.114-42.667-42.667v-153.6h17.067v128c0.009,9.422,7.645,17.057,17.067,17.067h8.533V494.933z     M51.2,426.667v-128h34.133v128H51.2z M145.067,494.933H76.8v-51.2h8.533c9.422-0.009,17.057-7.645,17.067-17.067v-128h17.067v128    c0.009,9.422,7.645,17.057,17.067,17.067h8.533V494.933z M136.533,426.667v-128h34.133v128H136.533z M221.867,494.933h-59.733    v-51.2h8.533c9.422-0.009,17.057-7.645,17.067-17.067v-128h34.133V494.933z M298.667,494.933h-59.733V298.667h34.133v128    c0.009,9.422,7.645,17.057,17.067,17.067h8.533V494.933z M290.133,426.667v-128h34.133v128H290.133z M384,494.933h-68.267v-51.2    h8.533c9.422-0.009,17.057-7.645,17.067-17.067v-128H358.4v128c0.009,9.422,7.645,17.057,17.067,17.067H384V494.933z     M375.467,426.667v-128H409.6v128H375.467z M494.933,452.267c-0.028,23.553-19.114,42.639-42.667,42.667h-51.2v-51.2h8.533    c9.422-0.009,17.057-7.645,17.067-17.067v-128h17.067v128c0.009,9.422,7.645,17.057,17.067,17.067h34.133V452.267z     M494.933,426.667H460.8v-128h34.133V426.667z M494.933,281.6H17.067V59.733c0.028-23.553,19.114-42.639,42.667-42.667h392.533    c23.553,0.028,42.639,19.114,42.667,42.667V281.6z" fill="#fefefe"/>
	</g>
</g>
<g>
	<g>
		<path d="M384,68.267c-42.415,0-76.8,34.385-76.8,76.8s34.385,76.8,76.8,76.8s76.8-34.385,76.8-76.8    C460.751,102.672,426.395,68.316,384,68.267z M384,204.8c-32.969,0.021-59.713-26.69-59.734-59.659    c-0.019-29.702,21.801-54.899,51.201-59.126v59.052c0,4.713,3.82,8.533,8.533,8.533s8.533-3.821,8.533-8.533V86.015    c32.634,4.692,55.285,34.951,50.593,67.585C438.899,182.999,413.702,204.819,384,204.8z" fill="#fefefe"/>
	</g>
</g>
<g>
	<g>
		<path d="M238.933,42.667h-179.2c-9.422,0.009-17.057,7.645-17.067,17.067v51.2c0.009,9.422,7.645,17.057,17.067,17.067h179.2    c9.422-0.009,17.057-7.645,17.067-17.067v-51.2C255.991,50.312,248.355,42.676,238.933,42.667z M59.733,110.933v-51.2h179.2    l0.012,51.2H59.733z" fill="#fefefe"/>
	</g>
</g>
<g>
	<g>
		<path d="M93.867,76.8h-8.533c-4.713,0-8.533,3.82-8.533,8.533s3.82,8.533,8.533,8.533h8.533c4.713,0,8.533-3.821,8.533-8.533    S98.58,76.8,93.867,76.8z" fill="#fefefe"/>
	</g>
</g>
<g>
	<g>
		<path d="M187.733,76.8H128c-4.713,0-8.533,3.82-8.533,8.533s3.82,8.533,8.533,8.533h59.733c4.713,0,8.533-3.821,8.533-8.533    S192.446,76.8,187.733,76.8z" fill="#fefefe"/>
	</g>
</g>
<g>
	<g>
		<path d="M72.533,204.8c-16.495,0-29.867,13.372-29.867,29.867c0,16.495,13.372,29.867,29.867,29.867    c16.495,0,29.867-13.372,29.867-29.867C102.38,218.18,89.02,204.82,72.533,204.8z M72.533,247.467c-7.069,0-12.8-5.731-12.8-12.8    c0-7.069,5.731-12.8,12.8-12.8c7.069,0,12.8,5.731,12.8,12.8C85.326,241.733,79.599,247.459,72.533,247.467z" fill="#fefefe"/>
	</g>
</g>
<g>
	<g>
		<path d="M157.867,204.8c-16.495,0-29.867,13.372-29.867,29.867c0,16.495,13.372,29.867,29.867,29.867    c16.495,0,29.867-13.372,29.867-29.867C187.713,218.18,174.353,204.82,157.867,204.8z M157.867,247.467    c-7.069,0-12.8-5.731-12.8-12.8c0-7.069,5.731-12.8,12.8-12.8c7.069,0,12.8,5.731,12.8,12.8    C170.659,241.733,164.933,247.459,157.867,247.467z" fill="#fefefe"/>
	</g>
</g>
<g>
	<g>
		<path d="M243.2,204.8c-16.495,0-29.867,13.372-29.867,29.867c0,16.495,13.372,29.867,29.867,29.867s29.867-13.372,29.867-29.867    C273.047,218.18,259.687,204.82,243.2,204.8z M243.2,247.467c-7.069,0-12.8-5.731-12.8-12.8c0-7.069,5.731-12.8,12.8-12.8    s12.8,5.731,12.8,12.8C255.992,241.733,250.266,247.459,243.2,247.467z" fill="#fefefe"/>
	</g>
</g>
<g>
	<g>
		<path d="M247.467,153.6H51.2c-4.713,0-8.533,3.82-8.533,8.533s3.82,8.533,8.533,8.533h196.267c4.713,0,8.533-3.82,8.533-8.533    S252.18,153.6,247.467,153.6z" fill="#fefefe"/>
	</g>
</g>
<g>
</g>
<g>
</g>
<g>
</g>
<g>
</g>
<g>
</g>
<g>
</g>
<g>
</g>
<g>
</g>
<g>
</g>
<g>
</g>
<g>
</g>
<g>
</g>
<g>
</g>
<g>
</g>
<g>
</g>
</svg>
