<?xml version="1.0" encoding="iso-8859-1"?>
<svg xmlns="http://www.w3.org/2000/svg" xmlns:xlink="http://www.w3.org/1999/xlink" version="1.1" viewBox="0 0 463 463" enable-background="new 0 0 463 463" width="512px" height="512px">
  <g>
    <path d="m399.5,135c8.359,0 16.155-4.497 20.347-11.736 2.075-3.584 0.852-8.173-2.733-10.249-3.583-2.075-8.173-0.852-10.249,2.733-1.519,2.623-4.341,4.252-7.365,4.252-4.687,0-8.5-3.813-8.5-8.5s3.813-8.5 8.5-8.5c4.142,0 7.5-3.358 7.5-7.5s-3.358-7.5-7.5-7.5c-12.958,0-23.5,10.542-23.5,23.5s10.542,23.5 23.5,23.5z" fill="#fefefe"/>
    <path d="m343.5,135c8.359,0 16.155-4.497 20.347-11.736 2.075-3.584 0.852-8.173-2.733-10.249-3.583-2.075-8.172-0.852-10.249,2.733-1.519,2.623-4.341,4.252-7.365,4.252-4.687,0-8.5-3.813-8.5-8.5s3.813-8.5 8.5-8.5c4.142,0 7.5-3.358 7.5-7.5s-3.358-7.5-7.5-7.5c-12.958,0-23.5,10.542-23.5,23.5s10.542,23.5 23.5,23.5z" fill="#fefefe"/>
    <path d="m437.5,56h-412c-14.061,0-25.5,11.439-25.5,25.5v300c0,14.061 11.439,25.5 25.5,25.5h412c14.061,0 25.5-11.439 25.5-25.5v-300c0-14.061-11.439-25.5-25.5-25.5zm-412,15h412c5.79,0 10.5,4.71 10.5,10.5v70.5h-433v-70.5c0-5.79 4.71-10.5 10.5-10.5zm350,217c-4.687,0-8.5-3.813-8.5-8.5v-112.5h17v112.5c0,4.687-3.813,8.5-8.5,8.5zm-72,0c-4.687,0-8.5-3.813-8.5-8.5v-112.5h17v112.5c0,4.687-3.813,8.5-8.5,8.5zm-72,0c-4.687,0-8.5-3.813-8.5-8.5v-112.5h17v112.5c0,4.687-3.813,8.5-8.5,8.5zm-72,0c-4.687,0-8.5-3.813-8.5-8.5v-112.5h17v112.5c0,4.687-3.813,8.5-8.5,8.5zm-72,0c-4.687,0-8.5-3.813-8.5-8.5v-112.5h17v112.5c0,4.687-3.813,8.5-8.5,8.5zm350,104h-54.5v-48.5c0-4.142-3.358-7.5-7.5-7.5s-7.5,3.358-7.5,7.5v48.5h-57v-48.5c0-4.142-3.358-7.5-7.5-7.5s-7.5,3.358-7.5,7.5v48.5h-57v-48.5c0-4.142-3.358-7.5-7.5-7.5s-7.5,3.358-7.5,7.5v48.5h-57v-48.5c0-4.142-3.358-7.5-7.5-7.5s-7.5,3.358-7.5,7.5v48.5h-57v-48.5c0-4.142-3.358-7.5-7.5-7.5s-7.5,3.358-7.5,7.5v48.5h-54.5c-5.79,0-10.5-4.71-10.5-10.5v-214.5h49v112.5c0,10.336 6.71,19.128 16,22.266v9.734c0,4.142 3.358,7.5 7.5,7.5s7.5-3.358 7.5-7.5v-9.734c9.29-3.138 16-11.93 16-22.266v-112.5h25v112.5c0,10.336 6.71,19.128 16,22.266v9.734c0,4.142 3.358,7.5 7.5,7.5s7.5-3.358 7.5-7.5v-9.734c9.29-3.138 16-11.93 16-22.266v-112.5h25v112.5c0,10.336 6.71,19.128 16,22.266v9.734c0,4.142 3.358,7.5 7.5,7.5s7.5-3.358 7.5-7.5v-9.734c9.29-3.138 16-11.93 16-22.266v-112.5h25v112.5c0,10.336 6.71,19.128 16,22.266v9.734c0,4.142 3.358,7.5 7.5,7.5s7.5-3.358 7.5-7.5v-9.734c9.29-3.138 16-11.93 16-22.266v-112.5h25v112.5c0,10.336 6.71,19.128 16,22.266v9.734c0,4.142 3.358,7.5 7.5,7.5s7.5-3.358 7.5-7.5v-9.734c9.29-3.138 16-11.93 16-22.266v-112.5h49v214.5c0,5.79-4.71,10.5-10.5,10.5z" fill="#fefefe"/>
  </g>
</svg>
