<svg version="1.1" xmlns="http://www.w3.org/2000/svg" xmlns:xlink="http://www.w3.org/1999/xlink" preserveAspectRatio="xMidYMid meet" viewBox="397 104 495 450"><g data-item-type="image" data-item="Image" data-logo-item="" id="logo__item--logo_0" class="logo__item">
    <g class="logo__item__inner" transform="translate(356.56312375555353 53.5) scale(3.6809033251690746 3.6809033251690746) rotate(-11.436557067784758 65.34999847412108 54.10000070294249)">
        
<g>
	<path fill="#fefefe" d="M138.4,73.6c0.4-4.7-5.6-5.4-7.3-9.2c-4.1-8.8-1.8-19.3-5.7-28.2c-1.8-4-6.5-3.7-10.2-3.9   c-1.4-2.9-1.4-6.7-4.2-8.6c-3.9-2.4-8.7-1.2-12.9-0.8c-3.8,0.6-8.4,1.1-10.7,4.6c-2,4.2-0.3,8.9-0.1,13.3c1.6-0.4,3.3-0.6,5-0.4   c0.1-3.3-2-8.8,2.7-9.8c4.3-0.9,9.2-2.3,13.3-0.3c1.3,2.6,1.4,5.5,2,8.3c3.1,0.1,8.2-2,9.5,2.2c2.1,7.6,1.8,15.7,3.7,23.4   c1.1,4.1,4.3,7,7.3,9.8c-2.1,2.7-4.5,5.6-4.6,9.2c-0.3,8.3,2.1,16.4,2.2,24.7c0.1,4.6-5.6,4-8.8,4.8c0.3,1.7,0.5,3.4,0.8,5.1   c5.1-0.8,12.8-0.3,14.5-6.6c1.4-9.2-2.7-18.3-1.7-27.4C133.5,79.4,138.6,77.6,138.4,73.6z" data-part-id="logo__item--logo_0__0"></path>
	<path fill="#fefefe" d="M29.5,123.3c-0.5-0.1-1.5-0.4-2-0.5c-4.1-8.6-2-18.9-5.5-27.8c-1.2-3-3.9-5-6.5-6.8c2.3-3.3,4.6-7,4.7-11.1   c0.1-8.2-2.5-16.2-2.1-24.3c0.8-3.8,5.8-3,8.7-3.8c-0.3-1.7-0.5-3.3-0.7-5c-5.2,0.6-13.1,0.2-14.6,6.7c-1.1,8.9,2.3,17.6,1.9,26.5   c-0.1,3.9-3,6.6-5.1,9.6c-0.2,1.7,0.1,3.5,0.2,5.3c3,1.7,6.5,3.5,7.6,7c2.6,8.1,1.7,16.9,4.3,24.9c1,3.4,4.6,5.5,8.1,5   c10.4-0.9,20.8-2.6,31.2-3.7c-0.1-1.8-0.2-3.5-0.4-5.2C49.2,120.9,39.4,122.7,29.5,123.3z" data-part-id="logo__item--logo_0__1"></path>
	<path fill="#b4f5ff" d="M76,70c1-3.3,4.4-5.2,7.7-4.2l12.5,3.6l3-10.4c1-3.3-0.9-6.8-4.2-7.7L70,44c-3.3-1-6.8,1-7.7,4.2l-6.9,23.7   l18.4,5.4L76,70z" data-part-id="logo__item--logo_0__2"></path>
	<path fill="#ffb4b4" d="M108.6,73l-12.5-3.6l-12.5-3.6c-3.3-1-6.8,1-7.7,4.2l-2.1,7.3l0.2,0c3.3,1,5.2,4.4,4.2,7.7l-5.1,17.7   l24.8,7.2c3.3,1,6.8-1,7.7-4.2l7.3-24.9C113.8,77.4,111.9,74,108.6,73z" data-part-id="logo__item--logo_0__3"></path>
	<path fill="#D6DE23" d="M78.2,85c1-3.3-0.9-6.8-4.2-7.7l-0.2,0l-18.4-5.4L49.1,70c-3.3-1-6.8,0.9-7.7,4.2l-7.3,24.9   c-1,3.3,0.9,6.8,4.2,7.7l24.9,7.3c3.3,1,6.8-0.9,7.7-4.2l2.1-7.3L78.2,85z" data-part-id="logo__item--logo_0__4"></path>
</g>

    </g>
</g><g data-item-type="text" data-item="Business" id="logo__item--business" class="logo__item">
                <g class="logo__item__inner" transform="translate(590.421875 337.39823951863013) scale(2.0646788661075246 2.0646788661075246) rotate(-23.5404640639379 38.05020901407939 32.922886918465885)">
                    <text data-part-id="logo__item--business" dy="0" dominant-baseline="auto" alignment-baseline="auto" font-family="Indie Flower" font-size="32px" fill="#333333" letter-spacing="0" font-weight="normal" font-style="normal" data-font-family="Indie Flower" data-font-weight="normal" data-font-style="normal" data-ttf-url="/builder_assets/fontsttf/indie-flower-bold-normal.ttf" data-font-filename="indie-flower-normal-normal">snap</text>
                </g>
            </g><g data-item-type="text" id="logo__item--tagline_1" data-item="Tagline" class="logo__item">
    <g class="logo__item__inner" transform="translate(572 375.5) scale(4.518323875363985 4.518323875363985) rotate(-19.2357541351459 31.140625 12)">
        <text dy="0" dominant-baseline="auto" alignment-baseline="auto" font-family="Indie Flower" font-size="18px" fill="#333333" letter-spacing="1" data-font-family="Indie Flower" data-font-weight="normal" data-font-style="normal" font-weight="normal" font-style="normal" data-ttf-url="/builder_assets/fontsttf/font-indie-flower-normal-normal.ttf" data-part-id="logo__item--tagline_1__0" data-font-filename="indie-flower-normal-normal">boogie</text>
    </g>
</g></svg>