<?xml version="1.0" encoding="iso-8859-1"?>
<!-- Generator: Adobe Illustrator 19.0.0, SVG Export Plug-In . SVG Version: 6.00 Build 0)  -->
<svg xmlns="http://www.w3.org/2000/svg" xmlns:xlink="http://www.w3.org/1999/xlink" version="1.1" id="Capa_1" x="0px" y="0px" viewBox="0 0 513.158 513.158" style="enable-background:new 0 0 513.158 513.158;" xml:space="preserve" width="512px" height="512px">
<g>
	<g>
		<path d="M510.75,459.996c-0.002-0.005-0.004-0.009-0.006-0.014v0l-72.789-156.075c10.083-9.696,10.397-25.731,0.701-35.814    c-2.31-2.402-5.071-4.325-8.125-5.658c12.198-14.844,20.237-32.659,23.296-51.627c0.085-0.256,0.085-0.597,0.171-0.853    c0.256-1.621,0.597-3.072,0.853-4.693c2.8-21.366,1.084-43.082-5.035-63.744c-2.521-8.644-5.688-17.088-9.472-25.259    c-3.826-8.181-8.276-16.055-13.312-23.552c-11.652-17.692-26.849-32.772-44.629-44.288c-0.357-0.315-0.76-0.574-1.195-0.768    l-0.939-0.597c-0.704-0.486-1.446-0.914-2.219-1.28c-30.805-18.091-64.427-21.077-92.416-8.107    c-18.071,8.654-32.728,23.102-41.642,41.045c-9.136-26.082-29.209-46.872-54.955-56.917c-28.876-9.764-60.673-5.235-85.675,12.203    c-28.685,18.997-50.31,46.919-61.525,79.445c-6.784,18.422-10.307,37.884-10.411,57.515c-0.06,14.55,2.099,29.023,6.4,42.923    c5.1,16.732,14.211,31.964,26.539,44.373c-5.407,2.963-9.56,7.782-11.691,13.568c-3.723,10.159-0.607,21.562,7.765,28.416    L1.56,462.031c-4.849,13.29,1.988,27.995,15.275,32.853c2.822,1.005,5.794,1.525,8.789,1.536    c3.745,0.013,7.446-0.803,10.837-2.389c6.129-2.887,10.879-8.066,13.227-14.421l58.88-161.792h0.171    c10.769-0.016,20.395-6.717,24.149-16.811c2.094-5.806,2.003-12.176-0.256-17.92c19.459-1.939,38.048-9.039,53.845-20.565    c0.38-0.199,0.726-0.459,1.024-0.768c0.412-0.264,0.811-0.549,1.195-0.853c1.073-0.513,2.031-1.239,2.816-2.133    c16.081-12.681,29.482-28.432,39.424-46.336c0.603-0.702,1.066-1.513,1.365-2.389c3.1-5.664,5.864-11.505,8.277-17.493    c1.707,4.779,3.669,9.557,5.803,14.165c3.801,8.177,8.222,16.051,13.227,23.552c11.748,17.589,26.928,32.624,44.629,44.203    c0.298,0.248,0.611,0.476,0.939,0.683c17.528,11.463,37.94,17.734,58.88,18.091h0.597c-3.879,13.532,3.946,27.646,17.477,31.525    c2.28,0.654,4.641,0.986,7.013,0.987c0.801-0.038,1.599-0.124,2.389-0.256l72.875,156.16c4.195,9.027,13.257,14.79,23.211,14.763    c3.717,0.013,7.39-0.803,10.752-2.389C511.187,488.051,516.73,472.813,510.75,459.996z M180.504,82.212l-21.931,23.467    l-1.877-32.085L180.504,82.212z M132.461,64.719L110.445,88.1l-1.792-32L132.461,64.719z M118.552,177.7l-22.016,23.467    l-1.792-32.085L118.552,177.7z M92.098,64.975L92.098,64.975l1.707,31.061l-20.736-7.509    C78.51,79.989,84.893,72.089,92.098,64.975z M49.688,152.697l20.736,7.509L49.09,182.905    C48.227,172.843,48.427,162.718,49.688,152.697z M56.173,200.399l21.931-23.381l1.792,32L56.173,200.399z M116.845,295.119    L116.845,295.119c-0.826,2.115-2.407,3.848-4.437,4.864c-2.073,0.937-4.431,1.029-6.571,0.256l-32-11.691h-0.085    c-2.141-0.75-3.872-2.358-4.779-4.437c-0.936-2.044-1.028-4.374-0.256-6.485c1.66-4.377,6.497-6.643,10.923-5.12l15.957,5.803    l0.085,0.085h0.085l15.958,5.803c2.124,0.778,3.846,2.377,4.779,4.437C117.509,290.655,117.632,293.003,116.845,295.119z     M104.216,217.892l22.016-23.381l1.792,32.085L104.216,217.892z M118.125,104.911l21.93-23.467l1.792,32.085L118.125,104.911z     M142.872,186.575l23.808,8.619l-22.016,23.381L142.872,186.575z M152.344,235.385l21.931-23.296l1.792,32L152.344,235.385z     M166.168,122.404l22.016-23.381l1.792,32.085L166.168,122.404z M228.632,99.705l-22.016,23.381l-1.792-32L228.632,99.705z     M192.706,235.13L192.706,235.13l-1.792-31.062l20.736,7.509C206.223,220.102,199.87,228.001,192.706,235.13z M235.032,147.492    l-20.736-7.595l21.333-22.699c0.171,1.963,0.341,3.925,0.427,5.973v0.171C236.387,131.407,236.045,139.485,235.032,147.492z     M250.818,166.948c-0.341-1.536-0.683-3.157-1.024-4.779v0c1.387-6.844,2.328-13.77,2.816-20.736l18.176,16.213L250.818,166.948z     M252.952,118.82l23.04-10.752l0.939,32.171L252.952,118.82z M435.736,156.025c2.161,9.837,3.248,19.88,3.243,29.952    l-23.125-20.651L435.736,156.025z M433.602,204.068l-22.869,10.752l-1.024-32.171L433.602,204.068z M406.893,94.159l-19.882,9.301    l-1.024-31.147C393.737,78.804,400.748,86.13,406.893,94.159z M392.386,176.249l1.024,32.085l-23.893-21.419L392.386,176.249z     M368.749,64.889l1.024,32.085l-24.064-21.419L368.749,64.889z M363.544,114.383l-22.955,10.667l-1.024-32.085L363.544,114.383z     M322.328,86.479l1.024,32.171l-23.979-21.504L322.328,86.479z M279.746,228.73L279.746,228.73l19.883-9.217l1.024,31.061    C292.923,244.061,285.914,236.738,279.746,228.73z M294.168,146.724l-0.939-32.171l23.893,21.419L294.168,146.724z     M317.976,257.999l-1.024-32l23.893,21.333L317.976,257.999z M323.01,208.591l23.04-10.752l1.024,32.171L323.01,208.591z     M364.312,236.409l-1.024-32.085l23.979,21.419L364.312,236.409z M428.141,288.633c-0.798,2.132-2.388,3.874-4.437,4.864    l-30.976,14.421c-2.044,0.936-4.374,1.028-6.485,0.257v-0.001c-2.124-0.778-3.846-2.377-4.779-4.437    c-1.004-2.022-1.128-4.369-0.341-6.485c0.799-2.132,2.388-3.873,4.437-4.864l30.976-14.421c4.266-1.946,9.302-0.076,11.264,4.182    C428.804,284.17,428.928,286.517,428.141,288.633z" fill="#fefefe"/>
	</g>
</g>
<g>
</g>
<g>
</g>
<g>
</g>
<g>
</g>
<g>
</g>
<g>
</g>
<g>
</g>
<g>
</g>
<g>
</g>
<g>
</g>
<g>
</g>
<g>
</g>
<g>
</g>
<g>
</g>
<g>
</g>
</svg>
