<?xml version="1.0" encoding="iso-8859-1"?>
<!-- Generator: Adobe Illustrator 19.0.0, SVG Export Plug-In . SVG Version: 6.00 Build 0)  -->
<svg xmlns="http://www.w3.org/2000/svg" xmlns:xlink="http://www.w3.org/1999/xlink" version="1.1" id="Capa_1" x="0px" y="0px" viewBox="0 0 511.968 511.968" style="enable-background:new 0 0 511.968 511.968;" xml:space="preserve" width="512px" height="512px">
<g>
	<g>
		<path d="M497.785,343.642l-49.175-85.525c-12.029-20.932-22.003-42.979-29.783-65.833c-5.941-17.149,0.682-36.133,16-45.867    c4.808-3.034,9.814-5.743,14.983-8.11l0.95,0.256c1.601,0.429,3.251,0.646,4.908,0.646c4.647-0.038,9.146-1.644,12.767-4.558    c4.983-3.871,8.526-9.298,10.067-15.417c4.342-12.421-2.052-26.032-14.383-30.621L323.127,50.675    c-6.18-1.565-12.736-0.114-17.679,3.913c-4.979,3.871-8.521,9.296-10.063,15.412c-4.344,12.422,2.05,26.036,14.383,30.625    l0.959,0.258c4.617,6.488,17.599,26.203,17.582,42.821l-0.742,26.383l0.108,5.354c0.625,30.657,8.949,60.665,24.208,87.262    l66.208,115.167c8.362,14.558,3.413,33.136-11.083,41.604c-14.424,8.359-32.894,3.441-41.253-10.983    c-0.03-0.051-0.059-0.103-0.089-0.155l-2.858-4.971l7.583-4.396c12.305-7.177,16.517-22.937,9.433-35.296    c-7.064-12.334-22.79-16.607-35.125-9.542c-0.039,0.022-0.078,0.045-0.117,0.067l-7.531,4.366l-8.743-15.206l7.582-4.397    c12.305-7.177,16.517-22.937,9.433-35.296c-7.065-12.334-22.79-16.607-35.125-9.542c-0.039,0.022-0.078,0.045-0.117,0.067    l-7.53,4.367l-8.743-15.208l7.581-4.396c12.305-7.177,16.517-22.937,9.433-35.296c-7.064-12.334-22.79-16.607-35.125-9.542    c-0.039,0.022-0.078,0.045-0.117,0.067l-7.53,4.367l-13.056-22.71l0.111-0.065c4.078-2.363,5.468-7.585,3.104-11.663    c-2.363-4.078-7.585-5.468-11.663-3.104l-0.06,0.034l-8.743-15.206l0.111-0.065c4.078-2.363,5.467-7.585,3.104-11.663    c-2.363-4.078-7.585-5.467-11.663-3.104l-0.06,0.034l-8.743-15.208l0.111-0.064c4.078-2.363,5.467-7.585,3.104-11.663    c-2.363-4.078-7.585-5.467-11.662-3.104l-0.06,0.034l-8.743-15.209l0.116-0.067c4.075-2.366,5.461-7.587,3.096-11.662    c-2.366-4.075-7.587-5.461-11.662-3.096l-0.054,0.031l-45.288-78.773c-12.977-22.649-41.858-30.49-64.507-17.512    c-9.247,5.298-16.432,13.567-20.389,23.463l-6.737,14.487c-2.503,6.426-7.111,11.814-13.071,15.283L4.256,91.458    c-4.078,2.363-5.467,7.585-3.104,11.662c2.363,4.078,7.585,5.468,11.663,3.104L53.31,82.746c1.036-0.6,1.944-1.372,2.928-2.047    c0.491-0.116,0.97-0.277,1.431-0.482c28.567-16.567,42.879-15.233,48.846-12.962c3.682,1.27,6.659,4.032,8.2,7.608    c0.166,0.577,0.391,1.135,0.671,1.667l196.917,370.596c27.254,51.615,91.19,71.364,142.804,44.11    c1.299-0.686,2.584-1.399,3.854-2.139C509.656,459.505,526.991,394.561,497.785,343.642z M314.202,84.142    c-1.829-0.492-3.687-4.629-2.325-9.737c0.588-2.479,1.985-4.692,3.971-6.288c0.664-0.577,1.491-0.934,2.367-1.021    c0.163-0.002,0.326,0.019,0.483,0.062l140.988,37.938c1.833,0.492,3.692,4.625,2.325,9.742l-0.009,0.004    c-0.582,2.478-1.979,4.689-3.967,6.279c-0.756,0.735-1.804,1.087-2.85,0.958L314.202,84.142z M353.144,368.966    c4.148-2.401,9.457-0.986,11.859,3.162c0.01,0.017,0.019,0.033,0.029,0.05c2.417,4.206,0.99,9.574-3.196,12.025l-7.531,4.366    l-8.743-15.208L353.144,368.966z M318.643,308.958c1.988-1.165,4.36-1.48,6.583-0.875c2.243,0.599,4.154,2.071,5.304,4.087    c2.417,4.206,0.99,9.574-3.196,12.025l-7.529,4.367l-4.123-7.169l-4.622-8.04L318.643,308.958z M284.143,248.95    c4.148-2.401,9.457-0.986,11.859,3.162c0.01,0.017,0.019,0.033,0.029,0.05c2.417,4.206,0.99,9.574-3.196,12.025l-7.529,4.367    l-2.367-4.116l-6.378-11.093L284.143,248.95z M450.343,474.359c-42.431,24.585-96.759,10.117-121.343-32.314    c-0.561-0.968-1.104-1.947-1.628-2.936L130.781,69.125c-3.109-8.058-9.47-14.432-17.521-17.558    c-11.962-3.975-24.947-3.571-36.638,1.14l3.626-7.798c4.086-10.975,14.242-18.521,25.929-19.267    c11.649-1.03,22.812,4.898,28.483,15.125l191.866,333.73l0.001,0.003l17.25,30.004l0.002,0.002l7.094,12.34    c12.932,22.636,41.765,30.502,64.401,17.571c0.101-0.058,0.202-0.116,0.303-0.175c22.61-13.201,30.341-42.167,17.317-64.879    l-66.208-115.167c-13.836-24.105-21.382-51.304-21.942-79.092l-0.112-4.946l0.742-26.2c-0.665-12.88-4.332-25.425-10.709-36.635    l91.237,24.55L425.693,132c-22.002,13.948-31.527,41.194-23.008,65.813c8.132,23.887,18.556,46.932,31.125,68.813l49.175,85.525    C507.532,394.935,492.955,449.512,450.343,474.359z" fill="#fefefe"/>
	</g>
</g>
<g>
</g>
<g>
</g>
<g>
</g>
<g>
</g>
<g>
</g>
<g>
</g>
<g>
</g>
<g>
</g>
<g>
</g>
<g>
</g>
<g>
</g>
<g>
</g>
<g>
</g>
<g>
</g>
<g>
</g>
</svg>
