<?xml version="1.0" encoding="iso-8859-1"?>
<!-- Generator: Adobe Illustrator 19.0.0, SVG Export Plug-In . SVG Version: 6.00 Build 0)  -->
<svg xmlns="http://www.w3.org/2000/svg" xmlns:xlink="http://www.w3.org/1999/xlink" version="1.1" id="Capa_1" x="0px" y="0px" viewBox="0 0 512.002 512.002" style="enable-background:new 0 0 512.002 512.002;" xml:space="preserve" width="512px" height="512px">
<g>
	<g>
		<path d="M256.001,76.801c-98.969,0-179.2,80.231-179.2,179.2s80.231,179.2,179.2,179.2s179.2-80.231,179.2-179.2    C435.09,157.078,354.924,76.912,256.001,76.801z M256.001,418.134c-89.544,0-162.133-72.59-162.133-162.133    s72.59-162.133,162.133-162.133s162.133,72.59,162.133,162.133C418.033,345.503,345.503,418.033,256.001,418.134z" fill="#fefefe"/>
	</g>
</g>
<g>
	<g>
		<path d="M256.001,110.934c-80.081,0.089-144.977,64.986-145.067,145.067c0,4.713,3.82,8.533,8.533,8.533s8.533-3.82,8.533-8.533    c0.08-70.659,57.341-127.92,128-128c4.713,0,8.533-3.821,8.533-8.533S260.714,110.934,256.001,110.934z" fill="#fefefe"/>
	</g>
</g>
<g>
	<g>
		<path d="M337.11,135.781c-0.017-0.012-0.034-0.023-0.051-0.034c-3.875-2.621-7.9-5.067-11.954-7.271    c-4.117-2.242-8.388-4.3-12.683-6.121c-4.354-1.846-8.842-3.492-13.333-4.888c-4.501-1.399-9.284,1.116-10.683,5.617    c-1.399,4.501,1.116,9.284,5.617,10.683h0c3.954,1.229,7.904,2.675,11.742,4.304c3.792,1.604,7.55,3.421,11.187,5.396    c3.579,1.946,7.129,4.108,10.558,6.421c3.896,2.651,9.203,1.642,11.854-2.253C342.014,143.74,341.006,138.433,337.11,135.781z" fill="#fefefe"/>
	</g>
</g>
<g>
	<g>
		<path d="M358.53,337.934c-3.332-3.332-8.735-3.332-12.067,0l0,0c-23.931,24.09-56.506,37.606-90.462,37.533    c-4.713,0-8.533,3.82-8.533,8.533s3.82,8.533,8.533,8.533c38.486,0.086,75.406-15.23,102.529-42.533    C361.862,346.669,361.862,341.267,358.53,337.934z" fill="#fefefe"/>
	</g>
</g>
<g>
	<g>
		<path d="M511.952,253.761c-1.161-26.48-22.364-47.683-48.844-48.844c-5.141-20.868-13.423-40.834-24.564-59.213    c19.097-20.805,17.712-53.152-3.093-72.248c-19.557-17.951-49.598-17.951-69.155,0c-18.379-11.14-38.344-19.422-59.212-24.563    c-1.237-28.213-25.11-50.081-53.323-48.844c-26.48,1.161-47.683,22.364-48.844,48.844c-20.868,5.141-40.834,13.423-59.213,24.564    C124.9,54.361,92.553,55.746,73.457,76.551c-17.951,19.557-17.951,49.598,0,69.155c-11.14,18.379-19.422,38.344-24.563,59.212    c-28.213,1.237-50.081,25.11-48.844,53.323c1.161,26.48,22.364,47.683,48.844,48.844c5.141,20.868,13.423,40.834,24.564,59.213    c-19.097,20.805-17.712,53.152,3.093,72.248c19.557,17.951,49.598,17.951,69.155,0c18.379,11.14,38.344,19.422,59.212,24.563    c1.237,28.213,25.111,50.081,53.323,48.844c26.48-1.161,47.683-22.364,48.844-48.844c20.868-5.141,40.834-13.423,59.213-24.564    c20.805,19.097,53.152,17.712,72.248-3.093c17.951-19.557,17.951-49.598,0-69.155c11.14-18.379,19.422-38.344,24.563-59.212    C491.321,305.848,513.189,281.974,511.952,253.761z M34.134,264.534h8.75c0.322,8.376,1.138,16.726,2.442,25.006    c-16.307-2.846-28.221-16.985-28.258-33.539c0.038-16.554,11.951-30.693,28.258-33.539c-1.304,8.28-2.119,16.63-2.442,25.006    h-8.75c-4.713,0-8.533,3.82-8.533,8.533C25.601,260.714,29.421,264.534,34.134,264.534z M400.818,77.059    c18.798-0.049,34.076,15.151,34.125,33.949c0.018,7.115-2.193,14.057-6.325,19.85c-4.932-6.792-10.257-13.29-15.949-19.459    l6.248-6.248c3.332-3.332,3.332-8.735,0-12.067s-8.735-3.332-12.067,0l-6.248,6.248c-6.17-5.692-12.668-11.017-19.46-15.949    C386.881,79.275,393.76,77.064,400.818,77.059z M256.001,17.068c16.554,0.038,30.693,11.951,33.539,28.258    c-8.28-1.304-16.63-2.119-25.006-2.442v-8.75c0-4.713-3.82-8.533-8.533-8.533c-4.713,0-8.533,3.821-8.533,8.533v8.75    c-8.376,0.322-16.726,1.138-25.006,2.442C225.308,29.019,239.447,17.105,256.001,17.068z M87.051,87.051    c11.928-11.327,30.128-12.838,43.761-3.634c-6.776,4.922-13.258,10.236-19.413,15.915l-6.248-6.248    c-3.332-3.332-8.734-3.332-12.067,0c-3.332,3.332-3.332,8.735,0,12.067l6.248,6.248c-5.692,6.17-11.017,12.668-15.949,19.46    c-4.108-5.738-6.32-12.618-6.324-19.675C77.033,102.128,80.631,93.438,87.051,87.051z M111.184,434.943    c-18.798,0.049-34.076-15.151-34.125-33.949c-0.018-7.115,2.193-14.057,6.325-19.85c4.932,6.792,10.257,13.29,15.949,19.459    l-6.248,6.248c-3.332,3.332-3.332,8.734,0,12.067c3.332,3.332,8.735,3.332,12.067,0l6.248-6.248    c6.17,5.692,12.668,11.017,19.46,15.949C125.121,432.727,118.242,434.938,111.184,434.943z M256.001,494.934    c-16.554-0.038-30.693-11.951-33.539-28.258c8.28,1.304,16.63,2.119,25.006,2.442v8.75c0,4.713,3.82,8.533,8.533,8.533    c4.713,0,8.533-3.82,8.533-8.533v-8.75c8.376-0.322,16.726-1.138,25.006-2.442C286.694,482.984,272.555,494.897,256.001,494.934z     M424.951,424.951c-11.928,11.327-30.128,12.838-43.761,3.634c6.776-4.922,13.258-10.236,19.413-15.915l6.248,6.248    c3.332,3.332,8.734,3.332,12.067,0s3.332-8.735,0-12.067l-6.248-6.248c5.692-6.17,11.017-12.668,15.949-19.46    c4.108,5.738,6.32,12.618,6.324,19.675C434.969,409.874,431.371,418.564,424.951,424.951z M256.001,452.268    c-108.395,0-196.267-87.872-196.267-196.267S147.606,59.734,256.001,59.734s196.267,87.872,196.267,196.267    C452.144,364.345,364.345,452.145,256.001,452.268z M494.441,261.775c-2.445,14.199-13.566,25.32-27.765,27.765    c1.304-8.28,2.119-16.63,2.442-25.006h8.75c4.713,0,8.533-3.82,8.533-8.533c0-4.713-3.82-8.533-8.533-8.533h-8.75    c-0.322-8.376-1.138-16.726-2.442-25.006C485.199,225.651,497.63,243.252,494.441,261.775z" fill="#fefefe"/>
	</g>
</g>
<g>
</g>
<g>
</g>
<g>
</g>
<g>
</g>
<g>
</g>
<g>
</g>
<g>
</g>
<g>
</g>
<g>
</g>
<g>
</g>
<g>
</g>
<g>
</g>
<g>
</g>
<g>
</g>
<g>
</g>
</svg>
