<?xml version="1.0" encoding="iso-8859-1"?>
<!-- Generator: Adobe Illustrator 19.0.0, SVG Export Plug-In . SVG Version: 6.00 Build 0)  -->
<svg xmlns="http://www.w3.org/2000/svg" xmlns:xlink="http://www.w3.org/1999/xlink" version="1.1" id="Capa_1" x="0px" y="0px" viewBox="0 0 512.176 512.176" style="enable-background:new 0 0 512.176 512.176;" xml:space="preserve" width="512px" height="512px">
<g>
	<g>
		<path d="M488.558,410.509L278.733,24.13C266.509,1.699,238.416-6.576,215.985,5.648c-7.775,4.237-14.171,10.617-18.427,18.382    L21.408,339.813c-2.213,3.845-3.374,8.205-3.366,12.642c-0.004,14.134,11.45,25.596,25.584,25.6c0.005,0,0.011,0,0.016,0    c9.305,0.032,17.887-5.015,22.383-13.162L238.058,56.451l201.025,370.246h-45.367L254.364,287.344l0.035-0.035    c3.332-3.33,3.333-8.732,0.003-12.064c-0.001-0.001-0.002-0.002-0.003-0.003l-42.242-42.238    c-13.311-13.347-34.922-13.376-48.269-0.065c-13.347,13.311-13.376,34.922-0.065,48.269c0.022,0.022,0.045,0.045,0.067,0.067    l42.234,42.237c3.33,3.332,8.732,3.333,12.064,0.003c0.001-0.001,0.002-0.002,0.003-0.003l0.037-0.037l103.218,103.221H84.516    c-4.221,0.005-8.377,1.049-12.1,3.038c-2.188,1.143-4.175,2.635-5.883,4.417c-4.905,4.758-7.656,11.312-7.616,18.145    c0.015,14.132,11.468,25.585,25.6,25.6h288.13l26.562,26.562c9.805,10.087,25.931,10.315,36.018,0.51    c7.219-7.017,9.627-17.627,6.145-27.073h6.579c16.322,0.105,31.467-8.482,39.758-22.542    C495.962,441.626,496.286,424.541,488.558,410.509z M212.158,305.413l-36.2-36.204c-6.708-6.622-6.777-17.428-0.155-24.135    c6.622-6.708,17.428-6.777,24.135-0.155c0.051,0.051,0.103,0.102,0.153,0.153l36.208,36.204L212.158,305.413z M84.516,460.83    c-4.692,0.021-8.513-3.766-8.533-8.458c-0.011-2.392,0.988-4.678,2.75-6.296c0.494-0.518,1.071-0.949,1.708-1.275    c1.254-0.672,2.653-1.028,4.075-1.038h253.997l17.066,17.067H84.516z M423.534,492.207c-0.061,0.063-0.122,0.124-0.185,0.185    l-0.075,0.075c-3.319,3.277-8.66,3.26-11.958-0.037l-29.1-29.1l-34.133-34.133L230.3,311.413l12-12l181.05,181.054    C426.642,483.658,426.725,488.914,423.534,492.207z M473.033,446.638L473.033,446.638c-5.235,8.862-14.791,14.269-25.083,14.192    h-20.1l-17.067-17.067h37.167c4.323,0.031,8.333-2.249,10.517-5.979c2.095-3.352,2.118-7.6,0.058-10.975L248.658,40.205    c-3.408-5.82-10.89-7.776-16.71-4.368c-1.848,1.082-3.38,2.632-4.44,4.493L51.083,356.646c-2.366,3.906-7.321,5.362-11.425,3.358    c-2.794-1.483-4.544-4.386-4.549-7.55c-0.002-1.477,0.389-2.928,1.133-4.204L212.516,32.246    c7.74-14.139,25.477-19.326,39.616-11.586c4.893,2.679,8.916,6.704,11.593,11.598l209.842,386.404    C478.384,427.417,478.181,438.074,473.033,446.638z" fill="#fefefe"/>
	</g>
</g>
<g>
</g>
<g>
</g>
<g>
</g>
<g>
</g>
<g>
</g>
<g>
</g>
<g>
</g>
<g>
</g>
<g>
</g>
<g>
</g>
<g>
</g>
<g>
</g>
<g>
</g>
<g>
</g>
<g>
</g>
</svg>
